<?xml version="1.0" standalone="no"?>
<!DOCTYPE svg PUBLIC "-//W3C//DTD SVG 20010904//EN"
 "http://www.w3.org/TR/2001/REC-SVG-20010904/DTD/svg10.dtd">
<svg version="1.0" xmlns="http://www.w3.org/2000/svg"
 width="1123.000000pt" height="1123.000000pt" viewBox="0 0 1123.000000 1123.000000"
 preserveAspectRatio="xMidYMid meet">
<metadata>
Created by potrace 1.11, written by Peter Selinger 2001-2013
</metadata>
<g transform="translate(0.000000,1123.000000) scale(0.100000,-0.100000)"
fill="#000000" stroke="none">
<path d="M5297 9963 c-1 -1 -70 -4 -152 -7 -83 -4 -177 -8 -210 -10 -33 -3
-112 -7 -175 -10 -63 -4 -140 -8 -170 -11 -30 -2 -91 -7 -135 -10 -177 -12
-221 -16 -252 -20 -18 -3 -63 -7 -100 -11 -37 -3 -84 -8 -103 -10 -19 -2 -64
-6 -100 -9 -36 -2 -81 -7 -100 -10 -19 -2 -55 -7 -80 -10 -73 -9 -103 -13
-135 -18 -16 -3 -51 -8 -76 -11 -25 -4 -95 -15 -155 -27 -60 -11 -121 -22
-135 -24 -14 -2 -61 -13 -105 -25 -43 -11 -90 -23 -103 -26 -13 -3 -32 -9 -43
-15 -10 -5 -18 -7 -18 -3 0 3 -7 1 -15 -6 -8 -7 -15 -9 -15 -5 0 4 -7 2 -15
-5 -8 -7 -15 -10 -15 -7 0 6 -153 -55 -235 -94 -61 -29 -165 -89 -183 -106 -7
-7 -17 -13 -21 -13 -4 0 -17 -8 -29 -17 -53 -45 -63 -53 -68 -53 -12 0 -191
-187 -235 -245 -44 -58 -122 -183 -146 -235 -23 -49 -53 -119 -53 -124 0 -2
-5 -17 -11 -33 -6 -15 -10 -28 -9 -28 1 0 -3 -12 -9 -28 -12 -30 -21 -71 -25
-102 -1 -11 -4 -24 -7 -30 -7 -12 -13 -90 -14 -162 0 -29 -4 -53 -8 -53 -5 0
-6 -4 -2 -10 3 -5 8 -46 10 -92 3 -46 7 -94 10 -108 3 -14 8 -38 11 -55 2 -16
10 -48 16 -70 5 -22 12 -49 14 -61 2 -12 11 -41 20 -65 8 -24 17 -51 19 -60 2
-9 13 -37 24 -62 12 -25 21 -49 21 -52 0 -13 120 -245 154 -299 20 -31 36 -58
36 -61 0 -8 65 -100 73 -103 4 -2 7 -10 7 -17 0 -7 3 -15 8 -17 4 -1 25 -28
47 -58 22 -30 47 -62 55 -71 8 -9 31 -36 50 -60 72 -91 382 -390 438 -423 9
-5 27 -20 42 -33 71 -63 407 -286 540 -359 19 -10 42 -24 50 -30 8 -6 56 -33
105 -59 121 -65 190 -102 250 -135 72 -39 188 -101 277 -148 74 -39 206 -112
238 -132 8 -6 34 -19 57 -31 23 -11 47 -27 54 -35 6 -8 15 -14 20 -14 7 0 173
-100 194 -118 6 -4 40 -28 78 -52 37 -24 67 -48 67 -52 0 -4 5 -8 11 -8 6 0
34 -19 62 -42 29 -24 63 -52 77 -63 51 -40 191 -187 205 -216 9 -16 20 -29 25
-29 6 0 10 -5 10 -10 0 -6 10 -32 23 -58 17 -37 22 -64 21 -127 0 -44 -2 -89
-5 -100 -7 -29 -78 -176 -93 -191 -7 -7 -27 -35 -45 -63 -18 -28 -37 -51 -41
-51 -5 0 -11 -8 -14 -17 -4 -10 -20 -33 -36 -52 -17 -18 -30 -38 -30 -44 0 -6
-3 -7 -7 -3 -4 3 -12 -2 -17 -12 -11 -19 -99 -123 -143 -169 -13 -13 -23 -28
-23 -33 0 -4 -4 -10 -9 -12 -5 -1 -39 -39 -76 -83 -37 -44 -72 -84 -79 -90 -6
-5 -22 -25 -35 -43 -13 -19 -33 -44 -45 -56 -32 -34 -76 -87 -76 -92 0 -3 -14
-18 -30 -34 -17 -17 -28 -30 -25 -30 6 0 -6 -16 -36 -48 -8 -9 -29 -35 -45
-57 -16 -22 -31 -42 -34 -45 -11 -10 -158 -216 -196 -275 -21 -33 -41 -62 -44
-65 -10 -10 -41 -65 -47 -82 -3 -10 -9 -18 -14 -18 -5 0 -9 -5 -9 -11 0 -6 -9
-24 -21 -40 -11 -16 -17 -29 -12 -29 4 0 3 -4 -2 -8 -9 -6 -69 -115 -95 -172
-4 -8 -14 -29 -23 -45 -9 -17 -25 -53 -35 -80 -11 -28 -28 -68 -38 -90 -35
-81 -102 -278 -108 -320 -2 -11 -4 -20 -5 -20 -3 0 -4 -3 -21 -75 -12 -47 -17
-69 -25 -110 -18 -91 -17 -87 -32 -215 -9 -79 -9 -326 1 -390 8 -55 9 -62 21
-120 5 -22 10 -42 10 -45 7 -38 61 -169 86 -210 5 -8 12 -23 15 -32 4 -10 10
-18 14 -18 5 0 11 -9 15 -20 7 -23 153 -174 210 -217 60 -46 211 -128 290
-159 39 -15 83 -33 100 -40 16 -7 33 -10 37 -8 4 3 8 0 8 -7 0 -7 3 -10 6 -6
3 3 27 -1 52 -8 26 -8 58 -16 72 -19 14 -3 36 -8 50 -11 14 -3 39 -8 55 -10
17 -3 37 -8 45 -10 8 -2 40 -7 70 -10 30 -3 62 -8 70 -10 8 -2 51 -7 95 -11
44 -3 98 -7 120 -9 337 -30 937 -25 1265 11 30 3 69 7 85 8 29 3 88 12 150 22
25 4 90 19 219 49 23 5 85 24 106 32 8 3 20 7 26 8 30 7 230 103 273 132 20
13 45 29 55 36 94 60 230 206 276 295 14 26 28 48 33 50 4 2 7 11 7 21 0 9 4
21 9 27 11 10 59 174 67 225 14 93 17 145 18 264 0 140 -11 270 -30 355 -3 14
-8 39 -11 55 -4 24 -60 245 -78 305 -7 27 -52 144 -91 241 -71 177 -220 455
-321 601 -18 26 -33 52 -33 58 0 5 -4 10 -8 10 -4 0 -15 12 -24 28 -16 26 -95
135 -142 197 -104 133 -223 283 -236 295 -8 8 -32 35 -52 60 -20 25 -47 57
-60 71 -13 15 -36 43 -53 64 -16 20 -39 47 -50 59 -79 89 -145 166 -192 223
-17 21 -39 48 -50 59 -37 43 -79 97 -106 137 -15 23 -31 44 -35 47 -8 6 -34
52 -68 122 -72 144 -55 286 49 423 51 68 188 196 293 275 54 41 101 78 102 83
2 4 9 7 16 7 7 0 21 9 31 20 10 11 22 20 27 20 5 0 24 11 42 25 18 14 38 25
44 25 7 0 12 5 12 10 0 6 5 10 10 10 6 0 16 5 23 10 15 13 177 110 183 110 2
0 21 11 42 23 38 25 120 70 207 116 28 14 52 28 55 32 3 3 23 13 45 23 22 10
48 26 59 35 10 9 21 15 25 15 6 -2 49 20 114 55 15 9 58 32 95 51 37 19 69 38
70 42 2 5 12 8 23 8 10 0 19 4 19 9 0 5 12 14 28 20 15 6 52 26 83 44 31 17
87 50 125 72 65 37 127 75 149 92 6 5 21 14 35 21 34 17 274 187 336 237 90
72 188 158 237 207 27 26 53 48 58 48 5 0 9 4 9 9 0 4 21 30 48 57 26 27 66
72 90 99 23 28 48 57 55 64 46 54 157 208 157 219 0 6 4 12 9 12 9 0 121 185
121 200 0 4 4 10 8 12 9 3 65 117 105 213 47 112 102 291 113 369 2 17 7 49
10 71 11 68 13 277 3 340 -10 66 -12 79 -29 145 -15 64 -14 60 -33 115 -9 28
-17 55 -18 60 0 6 -6 17 -13 25 -7 8 -19 31 -26 50 -7 19 -22 47 -32 62 -10
14 -18 29 -18 33 0 4 -28 48 -62 98 -58 83 -216 253 -282 302 -14 11 -32 25
-39 31 -56 48 -209 135 -337 191 -59 26 -210 81 -235 86 -11 2 -27 7 -35 10
-8 4 -26 8 -40 11 -14 2 -32 7 -40 10 -8 3 -26 8 -40 11 -142 30 -221 46 -250
50 -19 3 -57 10 -85 15 -27 5 -72 12 -100 15 -56 6 -127 15 -165 20 -50 7
-146 18 -180 20 -19 2 -35 4 -35 5 0 1 -22 3 -50 5 -64 5 -160 14 -160 15 0 1
-94 10 -165 15 -30 2 -84 6 -120 9 -169 14 -432 30 -675 42 -110 5 -774 11
-778 7z"/>
</g>
</svg>
