<?xml version="1.0" standalone="no"?>
<!DOCTYPE svg PUBLIC "-//W3C//DTD SVG 20010904//EN"
 "http://www.w3.org/TR/2001/REC-SVG-20010904/DTD/svg10.dtd">
<svg version="1.0" xmlns="http://www.w3.org/2000/svg"
 width="700.000000pt" height="700.000000pt" viewBox="0 0 700.000000 700.000000"
 preserveAspectRatio="xMidYMid meet">
<metadata>
Created by potrace 1.11, written by Peter Selinger 2001-2013
</metadata>
<g transform="translate(0.000000,700.000000) scale(0.100000,-0.100000)"
fill="#000000" stroke="none">
<path d="M3477 6614 c-1 -1 -103 -4 -227 -8 -124 -3 -245 -8 -270 -10 -25 -3
-90 -7 -145 -11 -55 -3 -118 -8 -140 -10 -22 -2 -71 -7 -110 -10 -38 -4 -83
-8 -100 -10 -42 -6 -110 -13 -180 -20 -33 -4 -71 -8 -85 -11 -14 -2 -41 -6
-60 -9 -19 -3 -46 -7 -60 -10 -14 -3 -41 -8 -60 -11 -19 -3 -43 -7 -52 -10 -9
-3 -25 -7 -37 -9 -107 -20 -289 -87 -397 -145 -129 -70 -267 -191 -360 -315
-78 -103 -161 -289 -178 -399 -3 -20 -9 -52 -12 -72 -14 -86 -5 -256 17 -339
6 -22 12 -47 14 -55 18 -95 118 -314 201 -443 102 -158 282 -361 409 -462 27
-22 55 -45 61 -50 23 -22 199 -143 282 -194 98 -60 116 -71 222 -128 212 -115
438 -238 461 -252 224 -133 373 -246 423 -323 15 -23 16 -30 3 -60 -12 -28
-106 -158 -141 -194 -15 -16 -86 -98 -206 -239 -266 -315 -411 -535 -527 -801
-30 -71 -56 -136 -58 -145 -2 -9 -10 -36 -18 -60 -16 -48 -37 -122 -43 -154
-2 -11 -6 -31 -9 -45 -7 -35 -14 -80 -21 -131 -7 -56 -7 -260 0 -296 3 -16 8
-44 11 -63 10 -66 37 -144 72 -214 20 -39 38 -73 42 -76 3 -3 18 -21 33 -41
111 -149 321 -270 568 -328 116 -27 206 -38 455 -56 64 -5 411 -5 490 0 33 2
87 6 120 9 33 3 89 8 125 11 164 15 370 72 493 137 229 120 363 283 421 511
77 300 -5 736 -210 1115 -120 221 -226 369 -469 655 -263 309 -289 341 -315
395 -21 41 -21 44 -5 69 70 106 280 251 650 448 50 27 125 68 169 92 43 24 80
43 82 43 10 0 273 161 353 217 416 287 711 676 812 1073 51 203 39 419 -34
606 -161 409 -549 670 -1101 739 -27 3 -52 8 -55 9 -3 2 -37 7 -76 10 -67 6
-99 10 -190 21 -22 2 -71 7 -110 10 -38 4 -83 8 -100 10 -16 2 -77 6 -135 10
-58 4 -127 8 -155 11 -42 3 -178 8 -483 17 -30 1 -54 1 -55 1z"/>
</g>
</svg>
